<svg xmlns="http://www.w3.org/2000/svg" viewBox="0 0 246.51 42.66">
      <defs>
        <style>
          .cls-1 {
            fill: #fff;
          }
        </style>
      </defs>
      <g>
        <path class="cls-1" d="M241.78,36.72l-16.51-16.51-.21-.2-.41-.36c-.13-.11-.27-.21-.41-.32-.83-.6-1.76-1.08-2.75-1.39-.9-.28-1.85-.43-2.84-.43-.18,0-.35,0-.53.02-.99.05-1.95.26-2.84.6,2.26.12,4.48,1.04,6.2,2.76v11.29c0,1.31-1.06,2.37-2.37,2.37h7.9c-1.31,0-2.37-1.06-2.37-2.37v-.95h7.18l6.87,6.87h6.44c-1.31,0-2.5-.53-3.35-1.39ZM224.65,30.37v-6.31l3.47,3.47,2.84,2.84h-6.31Z"/>
        <path class="cls-1" d="M244.08,4c-2.58,0-4.92,1.03-6.62,2.7-.03.03-.05.05-.08.08l-12.18,12.18-.14.14-.41-.36c-.13-.11-.27-.21-.41-.32-.83-.6-1.75-1.08-2.75-1.39V6.37c0-1.31-1.06-2.37-2.37-2.37h7.9c-1.31,0-2.37,1.06-2.37,2.37v11.64l12.67-12.67c.14-.14.23-.34.23-.56,0-.44-.35-.79-.79-.79h7.33Z"/>
      </g>
      <g>
        <path class="cls-1" d="M14.43,11.74l-5.58,8.06,7.58,9.11h-5.37l-6.79-8.05v8.05H0V11.74h4.28v7.78h.05l5.41-7.78h4.69Z"/>
        <path class="cls-1" d="M22.97,28.9v-8.03l-6.77-9.13h5.18l3.72,5.38,3.75-5.38h5.16l-6.77,9.13v8.03h-4.28Z"/>
        <path class="cls-1" d="M45.97,11.74l7.62,17.16h-4.6l-1.41-3.4h-7.67l-1.28,3.4h-4.53l6.92-17.16h4.96ZM46.32,22.51l-2.77-6.67-2.52,6.67h5.28Z"/>
        <path class="cls-1" d="M72.97,11.74v17.16h-3.6l-9.48-10.98v10.98h-4.28V11.74h3.93l9.16,10.49v-10.49h4.28Z"/>
        <path class="cls-1" d="M93.96,11.74v17.16h-4.28v-6.94h-8.56v6.94h-4.28V11.74h4.28v6.89h8.56v-6.89h4.28Z"/>
        <path class="cls-1" d="M99.27,24.75c.6,0,1.12.21,1.55.64.43.43.64.94.64,1.55s-.21,1.12-.64,1.55-.94.64-1.55.64-1.12-.21-1.55-.64c-.43-.43-.64-.94-.64-1.55s.21-1.12.64-1.55c.43-.43.94-.64,1.55-.64Z"/>
        <path class="cls-1" d="M116.13,12.85v3.35c-2.3-1.02-4.11-1.53-5.44-1.53-1.68,0-2.52.47-2.52,1.41,0,.65.75,1.27,2.26,1.86,2.25.87,3.65,1.49,4.2,1.86,1.51,1.01,2.26,2.38,2.26,4.13s-.69,3.08-2.06,4c-1.19.81-2.7,1.21-4.53,1.21-1.34,0-2.53-.17-3.57-.5-.62-.2-1.49-.59-2.62-1.16v-3.7c2.23,1.48,4.19,2.21,5.86,2.21s2.52-.53,2.52-1.59c0-.72-.75-1.37-2.26-1.94-2.25-.86-3.65-1.47-4.2-1.84-1.51-1.01-2.26-2.4-2.26-4.18,0-1.68.7-2.95,2.11-3.82,1.17-.74,2.65-1.11,4.43-1.11s3.75.44,5.81,1.33Z"/>
        <path class="cls-1" d="M135.3,11.74v3.15h-6.22v14.02h-4.28v-14.02h-6.22v-3.15h16.71Z"/>
        <path class="cls-1" d="M150.62,11.74h4.28v9.74c0,2.62-.8,4.57-2.39,5.86-1.46,1.19-3.52,1.79-6.19,1.79s-4.69-.6-6.16-1.81c-1.61-1.31-2.42-3.25-2.42-5.81v-9.76h4.28v9.86c0,1.23.4,2.19,1.19,2.89.8.7,1.82,1.06,3.06,1.06,1.34,0,2.4-.37,3.18-1.12.78-.75,1.17-1.79,1.17-3.13v-9.56Z"/>
        <path class="cls-1" d="M158.58,11.74h7.57c2.78,0,5.03.73,6.74,2.19,1.83,1.54,2.74,3.68,2.74,6.42,0,2.9-.97,5.09-2.89,6.57-1.73,1.32-4.09,1.99-7.07,1.99h-7.1V11.74ZM162.85,14.88v10.87h2.79c1.73,0,3.09-.48,4.09-1.43,1-.96,1.5-2.29,1.5-4s-.5-3.09-1.5-4.03-2.38-1.41-4.14-1.41h-2.74Z"/>
        <path class="cls-1" d="M183.21,11.74v17.16h-4.28V11.74h4.28Z"/>
        <path class="cls-1" d="M206.08,20.32c0,2.63-.99,4.78-2.97,6.44-1.88,1.58-4.16,2.37-6.84,2.37s-4.99-.78-6.87-2.34c-1.98-1.66-2.97-3.82-2.97-6.47,0-2.28.83-4.27,2.49-5.96,1.86-1.9,4.31-2.84,7.35-2.84s5.48.95,7.32,2.84c1.66,1.71,2.49,3.7,2.49,5.96ZM201.68,20.32c0-1.63-.5-2.91-1.48-3.84-.99-.93-2.3-1.4-3.93-1.4s-2.94.47-3.94,1.41c-1,.94-1.5,2.21-1.5,3.82s.5,2.89,1.5,3.82c1,.94,2.31,1.41,3.94,1.41s2.94-.47,3.93-1.4c.99-.93,1.48-2.21,1.48-3.84Z"/>
      </g>
    </svg>