<?xml version="1.0" encoding="UTF-8"?>
<svg id="Layer_1" data-name="Layer 1" xmlns="http://www.w3.org/2000/svg" viewBox="0 0 50 50">
  <defs>
    <style>
      .cls-1 {
        fill: #b9966a;
      }
    </style>
  </defs>
  <path class="cls-1" d="M37.74,42.25l-18.18-18.18-.23-.22-.45-.39c-.15-.12-.3-.24-.45-.35-.91-.67-1.93-1.19-3.03-1.53-.99-.31-2.04-.48-3.12-.48-.19,0-.39,0-.58.02-1.09.06-2.14.29-3.12.66,2.48.13,4.93,1.15,6.83,3.04v12.44c0,1.44-1.17,2.61-2.61,2.61h8.7c-1.44,0-2.61-1.17-2.61-2.61v-1.04h7.91l7.56,7.56h7.09c-1.44,0-2.75-.58-3.69-1.53ZM18.87,35.26v-6.95l3.82,3.82,3.13,3.13h-6.95Z"/>
  <path class="cls-1" d="M40.27,6.22c-2.84,0-5.41,1.13-7.29,2.97-.03.03-.06.06-.09.09l-13.41,13.41-.15.15-.45-.39c-.15-.12-.29-.24-.45-.35-.91-.67-1.93-1.19-3.03-1.53v-11.74c0-1.44-1.17-2.61-2.61-2.61h8.7c-1.44,0-2.61,1.17-2.61,2.61v12.82l13.95-13.95c.16-.16.25-.37.25-.62,0-.48-.39-.87-.87-.87h8.07Z"/>
</svg>